<?xml version="1.0" ?>
<!DOCTYPE svg  PUBLIC '-//W3C//DTD SVG 1.1//EN'  'http://www.w3.org/Graphics/SVG/1.1/DTD/svg11.dtd'>
<svg
  version="1.1"
  viewBox="0 0 846.66 846.66"
  width="24"
  height="24"
  xml:space="preserve"
  xmlns="http://www.w3.org/2000/svg"
  xmlns:xlink="http://www.w3.org/1999/xlink"
  stroke="currentColor"
>
  <g id="Layer_x0020_1" stroke-linecap="round" stroke-linejoin="round" stroke-width="16">
    <path d="M88.42 123.89l669.82 0c43.52,0 79.05,35.52 79.05,79.04l0 440.79c0,43.52 -35.52,79.05 -79.05,79.05l-669.82 0c-43.53,0 -79.05,-35.53 -79.05,-79.05l0 -440.79c0,-43.52 35.53,-79.04 79.05,-79.04zm85.35 381.46c-27.24,0 -27.24,-41.42 0,-41.42l499.12 0c27.24,0 27.24,41.42 0,41.42l-499.12 0zm217.15 -184.74c-27.24,0 -27.24,-41.42 0,-41.42l263.61 0c27.24,0 27.24,41.42 0,41.42l-263.61 0zm0 65.91c-27.24,0 -27.24,-41.43 0,-41.43l263.61 0c27.24,0 27.24,41.43 0,41.43l-263.61 0zm-217.15 205.26c-27.24,0 -27.24,-41.42 0,-41.42l499.12 0c27.24,0 27.24,41.42 0,41.42l-499.12 0zm18.36 -336.9l105.88 0c11.43,0 20.71,9.28 20.71,20.71l0 114.52c0,11.44 -9.28,20.71 -20.71,20.71l-105.88 0c-11.43,0 -20.71,-9.27 -20.71,-20.71l0 -114.52c0,-11.43 9.28,-20.71 20.71,-20.71zm85.17 41.42l-64.46 0 0 73.1 64.46 0 0 -73.1zm480.94 -130.99l-669.82 0c-20.65,0 -37.63,16.97 -37.63,37.62l0 440.79c0,20.65 16.97,37.63 37.63,37.63l669.82 0c20.66,0 37.63,-16.98 37.63,-37.63l0 -440.79c0,-20.65 -16.98,-37.62 -37.63,-37.62z" />
  </g>
</svg>
